<svg xmlns="http://www.w3.org/2000/svg" version="1.1" xmlns:xlink="http://www.w3.org/1999/xlink" xmlns:svgjs="http://svgjs.dev/svgjs" width="1500" height="659" viewBox="0 0 1500 659"><g transform="matrix(1,0,0,1,-0.9090909090909918,-0.989901408477067)"><svg viewBox="0 0 396 174" data-background-color="#e6e9e0" preserveAspectRatio="xMidYMid meet" height="659" width="1500" xmlns="http://www.w3.org/2000/svg" xmlns:xlink="http://www.w3.org/1999/xlink"><g id="tight-bounds" transform="matrix(1,0,0,1,0.2400000000000091,0.26137002287558175)"><svg viewBox="0 0 395.52 173.47685731846525" height="173.47685731846525" width="395.52"><g><svg viewBox="0 0 395.52 173.47685731846525" height="173.47685731846525" width="395.52"><g><svg viewBox="0 0 395.52 173.47685731846525" height="173.47685731846525" width="395.52"><g id="textblocktransform"><svg viewBox="0 0 395.52 173.47685731846525" height="173.47685731846525" width="395.52" id="textblock"><g><svg viewBox="0 0 395.52 72.09667205169629" height="72.09667205169629" width="395.52"><g transform="matrix(1,0,0,1,0,0)"><svg width="395.52" viewBox="1 -33 185.69 33.85" height="72.09667205169629" data-palette-color="#635c80"><g class="wordmark-text-0" data-fill-palette-color="primary" id="text-0"><path d="M15.65-33L15.65-33 16.4-31.05 13.1-30.25Q13.85-28.6 14.93-26.03 16-23.45 17.45-20.45 18.9-17.45 20.65-14.35L20.65-14.35 14.6-9.9Q13.5-12.35 12.23-15.1 10.95-17.85 9.68-20.63 8.4-23.4 7.15-25.85 5.9-28.3 4.85-30.15L4.85-30.15 1-31.05 1.65-33Q3.2-32.95 4.7-32.9 6.2-32.85 8.15-32.85L8.15-32.85Q10.8-32.85 12.55-32.9 14.3-32.95 15.65-33ZM13.55-13.75L20.65-14.85Q20.6-12.2 20.58-10.23 20.55-8.25 20.6-6.55 20.65-4.85 20.7-2.95L20.7-2.95 25.75-1.9 25.1 0Q23.8-0.1 21.85-0.13 19.9-0.15 16.95-0.15L16.95-0.15Q13.9-0.15 12.25-0.1 10.6-0.05 9.1 0L9.1 0 8.45-1.9 13.55-2.95Q13.65-4.9 13.68-6.45 13.7-8 13.68-9.7 13.65-11.4 13.55-13.75L13.55-13.75ZM31.8-33L31.8-33 32.55-31.05 28.55-30Q27.6-28.4 26.4-26 25.2-23.6 23.9-20.85 22.6-18.1 21.4-15.35 20.2-12.6 19.3-10.25L19.3-10.25 17.3-13.95Q18.2-15.6 19.15-17.73 20.1-19.85 20.98-22.13 21.85-24.4 22.58-26.48 23.3-28.55 23.8-30.1L23.8-30.1 19.65-31.05 20.35-33Q21.9-32.95 23.2-32.9 24.5-32.85 26.2-32.85L26.2-32.85Q27.9-32.85 29.2-32.9 30.5-32.95 31.8-33ZM46.4-21.7L46.4-21.7Q50.1-21.7 52.57-20.15 55.05-18.6 56.27-16.1 57.5-13.6 57.5-10.7L57.5-10.7Q57.5-7.75 56.25-5.18 55-2.6 52.5-1.05 50 0.5 46.25 0.5L46.25 0.5Q42.5 0.5 39.95-1.07 37.4-2.65 36.1-5.25 34.8-7.85 34.8-10.8L34.8-10.8Q34.8-13.7 36.07-16.18 37.35-18.65 39.92-20.18 42.5-21.7 46.4-21.7ZM41.8-11.85L41.8-11.85Q41.8-9.35 42.37-7.1 42.95-4.85 44.1-3.45 45.25-2.05 46.85-2.05L46.85-2.05Q48.75-2.05 49.67-4.13 50.6-6.2 50.6-9.3L50.6-9.3Q50.6-11.8 50.02-14.03 49.45-16.25 48.32-17.68 47.2-19.1 45.55-19.1L45.55-19.1Q43.65-19.1 42.72-17.03 41.8-14.95 41.8-11.85ZM70.25 0.85L70.25 0.85Q67.1 0.85 65.32-1.3 63.55-3.45 63.3-7.55L63.3-7.55Q63.2-9.3 63.2-11.88 63.2-14.45 63.25-18.35L63.25-18.35 59.7-18.9 59.1-20.95Q62-20.95 64.82-21.15 67.65-21.35 70.1-21.7L70.1-21.7Q70-19.4 69.87-17.48 69.75-15.55 69.75-13.58 69.75-11.6 69.9-9L69.9-9Q70.05-6.1 71.25-5 72.45-3.9 73.6-3.9L73.6-3.9Q74.8-4.15 75.85-5.53 76.9-6.9 77.55-8.88 78.2-10.85 78.2-12.8L78.2-12.8 79.5-8.55Q79.2-6.1 77.95-3.95 76.7-1.8 74.72-0.48 72.75 0.85 70.25 0.85ZM78.6 0L78.6 0Q78.55-1.5 78.42-3.2 78.3-4.9 78.25-7.25L78.25-7.25 77.95-18.3 74.35-18.9 73.75-20.95Q76.7-20.95 79.45-21.15 82.2-21.35 84.7-21.7L84.7-21.7Q84.7-21.7 84.67-20.55 84.65-19.4 84.62-17.7 84.6-16 84.55-14.33 84.5-12.65 84.47-11.5 84.45-10.35 84.45-10.35L84.45-10.35Q84.5-8.65 84.62-7.13 84.75-5.6 84.95-2.9L84.95-2.9 88.7-1.85 87.75 0Q86.45-0.1 85.32-0.1 84.2-0.1 82.45-0.1L82.45-0.1Q81.7-0.1 80.5-0.05 79.3 0 78.6 0ZM100.69-21.7L100.69-21.7Q100.74-20.55 100.84-19 100.94-17.45 101.04-16.18 101.14-14.9 101.14-14.45L101.14-14.45 101.49-3.1 106.44-1.85 105.69 0Q104.84-0.05 103.44-0.08 102.04-0.1 100.54-0.13 99.04-0.15 97.84-0.15L97.84-0.15Q96.29-0.15 94.49-0.1 92.69-0.05 91.19 0L91.19 0 90.44-1.85 94.49-2.9Q94.49-5.15 94.49-6.93 94.49-8.7 94.49-10.8L94.49-10.8Q94.49-11.95 94.47-12.93 94.44-13.9 94.39-15.13 94.34-16.35 94.19-18.15L94.19-18.15 90.79-18.7 90.09-20.8Q91.24-20.85 93.17-20.95 95.09-21.05 97.14-21.25 99.19-21.45 100.69-21.7ZM107.39-21.8L107.39-21.8Q108.79-21.8 109.99-21.28 111.19-20.75 112.29-19.6L112.29-19.6Q111.99-18.1 111.74-17 111.49-15.9 111.17-14.83 110.84-13.75 110.39-12.2L110.39-12.2 107.59-12.2Q107.24-14.05 106.57-15.43 105.89-16.8 104.74-17.3L104.74-17.3Q103.49-16.5 102.37-14.33 101.24-12.15 101.24-8.55L101.24-8.55 99.29-11.45Q99.69-14.25 100.84-16.6 101.99-18.95 103.67-20.38 105.34-21.8 107.39-21.8ZM130.14-33L130.14-33 130.69-31.05 126.29-29.85Q126.24-24.55 126.22-20.98 126.19-17.4 126.19-16.25L126.19-16.25Q126.19-13 126.19-10.7 126.19-8.4 126.22-6.6 126.24-4.8 126.29-2.95L126.29-2.95 130.69-1.9 130.14 0Q127.44-0.15 122.54-0.15L122.54-0.15Q120.24-0.15 118.42-0.1 116.59-0.05 115.04 0L115.04 0 114.39-1.9 118.79-2.95Q118.89-7.2 118.94-10.7 118.99-14.2 118.99-17.95L118.99-17.95Q118.99-20.55 118.94-23.45 118.89-26.35 118.79-29.85L118.79-29.85 114.39-31.05 114.99-33Q116.59-32.9 118.54-32.83 120.49-32.75 122.79-32.75L122.79-32.75Q124.79-32.75 126.79-32.85 128.79-32.95 130.14-33ZM140.99-18.4L140.99-18.4 140.99-14.8Q136.64-15.1 132.29-15.1L132.29-15.1Q130.29-15.1 128.34-15.03 126.39-14.95 124.49-14.85L124.49-14.85 124.49-18.35Q126.39-18.25 128.34-18.18 130.29-18.1 132.29-18.1L132.29-18.1Q136.64-18.1 140.99-18.4ZM150.49-33L150.49-33 151.04-31.05 146.64-29.85Q146.64-26.05 146.62-22.98 146.59-19.9 146.57-17.18 146.54-14.45 146.54-11.7L146.54-11.7Q146.54-9.7 146.57-7.55 146.59-5.4 146.64-2.95L146.64-2.95 151.04-1.9 150.49 0Q147.79-0.15 142.99-0.15L142.99-0.15Q140.69-0.15 138.82-0.1 136.94-0.05 135.39 0L135.39 0 134.74-1.9 139.14-2.95Q139.24-7.2 139.32-10.65 139.39-14.1 139.39-17.7L139.39-17.7Q139.39-20.35 139.32-23.3 139.24-26.25 139.14-29.85L139.14-29.85 134.74-31.05 135.34-33Q136.89-32.9 138.89-32.83 140.89-32.75 143.19-32.75L143.19-32.75Q145.19-32.75 147.17-32.85 149.14-32.95 150.49-33ZM170.24-33L170.24-33Q173.99-33 176.36-31.83 178.74-30.65 179.89-28.73 181.04-26.8 181.04-24.5L181.04-24.5Q181.04-22.8 180.36-20.95 179.69-19.1 178.24-17.53 176.79-15.95 174.44-14.98 172.09-14 168.79-14L168.79-14Q167.09-14 165.74-14.1 164.39-14.2 162.74-14.55L162.74-14.55 162.74-17.7Q164.34-17.35 165.64-17.13 166.94-16.9 168.14-16.9L168.14-16.9Q168.74-16.9 169.31-16.98 169.89-17.05 170.54-17.15L170.54-17.15Q171.69-18.05 172.49-19.6 173.29-21.15 173.29-24.15L173.29-24.15Q173.29-27.15 171.76-28.7 170.24-30.25 168.04-30.25L168.04-30.25Q166.64-30.25 164.99-29.8L164.99-29.8Q164.99-27 164.99-24.58 164.99-22.15 164.99-19.95L164.99-19.95Q164.99-15.65 164.99-11.7 164.99-7.75 164.99-2.95L164.99-2.95 169.39-1.9 168.69 0Q167.39-0.1 165.74-0.13 164.09-0.15 160.99-0.15L160.99-0.15Q158.69-0.15 157.01-0.1 155.34-0.05 153.79 0L153.79 0 153.04-1.9 157.44-2.95Q157.59-6.35 157.64-9.6 157.69-12.85 157.69-15.8L157.69-15.8Q157.69-19.7 157.61-23.23 157.54-26.75 157.44-29.8L157.44-29.8 153.04-31.1 153.59-33Q154.64-32.95 156.06-32.9 157.49-32.85 158.89-32.83 160.29-32.8 161.19-32.8L161.19-32.8Q162.74-32.8 163.89-32.85 165.04-32.9 166.46-32.95 167.89-33 170.24-33ZM172.54-16.35L172.54-16.35Q173.29-15.05 174.81-12.78 176.34-10.5 178.29-7.9 180.24-5.3 182.19-2.95L182.19-2.95 186.69-1.9 185.89 0Q184.99-0.1 183.36-0.1 181.74-0.1 180.44-0.1L180.44-0.1Q179.19-0.1 177.44-0.1 175.69-0.1 174.69 0L174.69 0Q173.64-1.9 172.34-4.15 171.04-6.4 169.74-8.63 168.44-10.85 167.39-12.63 166.34-14.4 165.74-15.25L165.74-15.25Q166.19-15.75 167.21-15.98 168.24-16.2 169.41-16.28 170.59-16.35 171.49-16.35 172.39-16.35 172.54-16.35Z" fill="#635c80" data-fill-palette-color="primary"></path></g></svg></g></svg></g><g transform="matrix(1,0,0,1,0,106.1372599542488)"><svg viewBox="0 0 395.52 67.33959736421646" height="67.33959736421646" width="395.52"><path d="M395.52 0l-11.223 33.67 11.223 33.67h-395.52l11.223-33.67-11.223-33.67z" data-fill-palette-color="tertiary" opacity="1" fill="#776e9a"></path><g transform="matrix(1,0,0,1,196.37568,17.020293951276255)"><svg width="199.14432" viewBox="1.5 -37.8 306.47 51.25" height="33.29900946166395" data-palette-color="#e6e9e0"><path d="M8.6 0.85L8.6 0.85Q5.6 0.85 3.55-0.73 1.5-2.3 1.5-5.5L1.5-5.5Q1.5-8 2.73-9.6 3.95-11.2 6.03-12.08 8.1-12.95 10.65-13.25 13.2-13.55 15.85-13.5L15.85-13.5 15.9-17.9Q15.95-20.7 14.85-22.23 13.75-23.75 11.5-23.75L11.5-23.75Q10.25-23.75 9.1-23.58 7.95-23.4 6.8-23L6.8-23 6.15-17.7Q5.75-17.5 5.05-17.48 4.35-17.45 3.95-17.5L3.95-17.5Q3.5-19.15 3.2-20.8 2.9-22.45 2.95-24L2.95-24Q5.3-25.1 7.68-25.55 10.05-26 12.85-26L12.85-26Q15.65-26 17.38-25.1 19.1-24.2 19.93-22 20.75-19.8 20.75-15.85L20.75-15.85 20.75-2.45Q21.6-2.05 22.5-1.88 23.4-1.7 24.25-1.45L24.25-1.45Q24.4-0.5 24 0.3L24 0.3Q23.2 0.45 22.08 0.55 20.95 0.65 19.8 0.65L19.8 0.65Q18.15 0.65 16.95 0.35L16.95 0.35 16.25-2.25 16.05-2.25Q14.8-0.95 12.95-0.05 11.1 0.85 8.6 0.85ZM10.5-1.9L10.5-1.9Q11.9-1.9 13.5-2.78 15.1-3.65 15.85-4.75L15.85-4.75 15.85-11.5Q10.7-11.5 8.6-10.28 6.5-9.05 6.5-6L6.5-6Q6.5-3.95 7.6-2.93 8.7-1.9 10.5-1.9ZM34.05-25.1L34-23.1 34.25-22.85Q36.25-24.6 38.15-25.3 40.05-26 41.75-26L41.75-26Q45.15-26 47.45-24.18 49.75-22.35 50.95-19.4 52.15-16.45 52.15-13.15L52.15-13.15Q52.15-6.2 48.72-2.63 45.3 0.95 39.35 0.95L39.35 0.95Q38.4 0.95 36.92 0.65 35.45 0.35 34.25-0.15L34.25-0.15 34.25 10 38.6 11Q38.75 11.95 38.35 12.75L38.35 12.75Q37 12.65 35.07 12.58 33.15 12.5 31.75 12.5L31.75 12.5Q30.35 12.5 28.7 12.58 27.05 12.65 25.65 12.75L25.65 12.75Q25.5 11.8 25.75 11L25.75 11Q26.6 10.8 27.5 10.58 28.4 10.35 29.25 10L29.25 10 29.25-22 25.15-22.4Q25-23.4 25.4-24.15L25.4-24.15Q25.8-24.2 27.65-24.53 29.5-24.85 32.3-25.5L32.3-25.5Q32.85-25.45 33.25-25.35 33.65-25.25 34.05-25.1L34.05-25.1ZM34.25-20.2L34.25-2.95Q35.2-2.3 36.37-1.83 37.55-1.35 39.25-1.35L39.25-1.35Q43-1.35 44.92-4.38 46.85-7.4 46.85-12.85L46.85-12.85Q46.85-18 45.07-20.5 43.3-23 40.25-23L40.25-23Q38.4-23 36.67-22.08 34.95-21.15 34.25-20.2L34.25-20.2ZM63.4-25.1L63.35-23.1 63.6-22.85Q65.59-24.6 67.5-25.3 69.4-26 71.09-26L71.09-26Q74.5-26 76.8-24.18 79.09-22.35 80.3-19.4 81.5-16.45 81.5-13.15L81.5-13.15Q81.5-6.2 78.07-2.63 74.65 0.95 68.7 0.95L68.7 0.95Q67.75 0.95 66.27 0.65 64.8 0.35 63.6-0.15L63.6-0.15 63.6 10 67.95 11Q68.09 11.95 67.7 12.75L67.7 12.75Q66.34 12.65 64.42 12.58 62.5 12.5 61.1 12.5L61.1 12.5Q59.7 12.5 58.05 12.58 56.4 12.65 55 12.75L55 12.75Q54.85 11.8 55.1 11L55.1 11Q55.95 10.8 56.85 10.58 57.75 10.35 58.6 10L58.6 10 58.6-22 54.5-22.4Q54.35-23.4 54.75-24.15L54.75-24.15Q55.15-24.2 57-24.53 58.85-24.85 61.65-25.5L61.65-25.5Q62.2-25.45 62.6-25.35 63-25.25 63.4-25.1L63.4-25.1ZM63.6-20.2L63.6-2.95Q64.55-2.3 65.72-1.83 66.9-1.35 68.59-1.35L68.59-1.35Q72.34-1.35 74.27-4.38 76.2-7.4 76.2-12.85L76.2-12.85Q76.2-18 74.42-20.5 72.65-23 69.59-23L69.59-23Q67.75-23 66.02-22.08 64.3-21.15 63.6-20.2L63.6-20.2ZM92.94-37.25L92.94-2.5 96.79-1.5Q96.94-0.55 96.54 0.25L96.54 0.25Q95.19 0.15 93.52 0.08 91.84 0 90.44 0L90.44 0Q89.04 0 87.39 0.08 85.74 0.15 84.34 0.25L84.34 0.25Q84.19-0.7 84.44-1.5L84.44-1.5Q85.39-1.75 86.32-1.95 87.24-2.15 87.94-2.5L87.94-2.5 87.94-34.3 83.79-34.7Q83.64-35.7 84.04-36.45L84.04-36.45Q85.84-36.7 87.67-37.05 89.49-37.4 91.04-37.8L91.04-37.8Q91.54-37.75 91.99-37.63 92.44-37.5 92.94-37.25L92.94-37.25ZM102.99 13.45L102.99 13.45Q102.14 12.15 101.27 10.45 100.39 8.75 100.14 7.05L100.14 7.05Q100.44 6.8 101.02 6.58 101.59 6.35 102.04 6.35L102.04 6.35 105.24 10.1Q106.59 8.8 108.02 6.18 109.44 3.55 110.69 0.2L110.69 0.2 101.59-22.5 97.74-23.5Q97.59-24.45 97.99-25.25L97.99-25.25Q99.34-25.2 100.92-25.1 102.49-25 103.89-25L103.89-25Q105.34-25 107.02-25.1 108.69-25.2 110.09-25.25L110.09-25.25Q110.24-24.3 109.99-23.5L109.99-23.5Q109.09-23.3 108.22-23.1 107.34-22.9 106.54-22.5L106.54-22.5 110.69-12.45Q110.94-11.85 111.44-10.63 111.94-9.4 112.44-7.85 112.94-6.3 113.24-4.7L113.24-4.7 113.39-4.7Q113.69-5.85 114.04-7.38 114.39-8.9 115.34-11.35L115.34-11.35 119.59-22.5 116.14-23.5Q115.99-24.45 116.39-25.25L116.39-25.25Q117.74-25.2 118.82-25.1 119.89-25 121.29-25L121.29-25Q122.74-25 123.74-25.1 124.74-25.2 126.14-25.25L126.14-25.25Q126.29-24.3 126.04-23.5L126.04-23.5Q125.14-23.3 124.22-23.1 123.29-22.9 122.59-22.5L122.59-22.5 112.79 2.35Q111.49 5.65 109.89 8.15 108.29 10.65 106.54 12.05 104.79 13.45 102.99 13.45ZM154.24-31L153.69-35.4Q152.74-35.8 151.74-35.8L151.74-35.8Q149.74-35.8 148.79-33.73 147.84-31.65 147.84-28L147.84-28 147.84-23.75 154.84-23.75Q154.84-23.15 154.71-22.4 154.59-21.65 154.34-21.25L154.34-21.25 147.84-21.25 147.84-2.5 152.69-1.5Q152.84-0.55 152.44 0.25L152.44 0.25Q151.54 0.2 150.21 0.15 148.89 0.1 147.59 0.05 146.29 0 145.34 0L145.34 0Q143.94 0 142.29 0.08 140.64 0.15 139.24 0.25L139.24 0.25Q139.09-0.7 139.34-1.5L139.34-1.5Q140.24-1.7 141.14-1.93 142.04-2.15 142.84-2.5L142.84-2.5 142.84-21.25 139.59-21.25Q139.54-21.75 139.71-22.63 139.89-23.5 140.09-23.75L140.09-23.75 142.84-23.75 142.84-26.75Q142.84-31.85 145.19-34.8 147.54-37.75 151.34-37.75L151.34-37.75Q153.34-37.75 154.61-37.43 155.89-37.1 157.24-36.25L157.24-36.25Q157.09-34.85 156.86-33.48 156.64-32.1 156.29-30.8L156.29-30.8Q155.94-30.75 155.29-30.78 154.64-30.8 154.24-31L154.24-31ZM157.33-12.5L157.33-12.5Q157.33-16.4 158.86-19.45 160.38-22.5 163.23-24.25 166.08-26 169.93-26L169.93-26Q173.83-26 176.66-24.25 179.48-22.5 181.01-19.45 182.53-16.4 182.53-12.5L182.53-12.5Q182.53-8.5 181.01-5.45 179.48-2.4 176.66-0.7 173.83 1 169.93 1L169.93 1Q166.08 1 163.23-0.7 160.38-2.4 158.86-5.45 157.33-8.5 157.33-12.5ZM177.13-11.8L177.13-11.8Q177.13-15.15 176.38-17.88 175.63-20.6 174.03-22.23 172.43-23.85 169.83-23.85L169.83-23.85Q167.18-23.85 165.61-22.25 164.03-20.65 163.38-18 162.73-15.35 162.73-12.15L162.73-12.15Q162.73-9.25 163.48-6.73 164.23-4.2 165.86-2.68 167.48-1.15 170.03-1.15L170.03-1.15Q172.73-1.15 174.28-2.65 175.83-4.15 176.48-6.6 177.13-9.05 177.13-11.8ZM194.33-16.85L194.33-2.5 199.18-1.5Q199.33-0.55 198.93 0.25L198.93 0.25Q198.03 0.2 196.71 0.15 195.38 0.1 194.08 0.05 192.78 0 191.83 0L191.83 0Q190.43 0 188.78 0.08 187.13 0.15 185.73 0.25L185.73 0.25Q185.58-0.7 185.83-1.5L185.83-1.5Q186.78-1.75 187.71-1.95 188.63-2.15 189.33-2.5L189.33-2.5 189.33-22 185.18-22.4Q185.03-23.4 185.43-24.15L185.43-24.15Q187.23-24.4 189.06-24.75 190.88-25.1 192.43-25.5L192.43-25.5Q192.93-25.45 193.26-25.33 193.58-25.2 194.08-24.95L194.08-24.95 194.08-20.4 194.13-20.35Q195.68-22.65 197.61-24.25 199.53-25.85 201.73-25.85L201.73-25.85Q202.58-25.85 203.41-25.73 204.23-25.6 205.03-25.1L205.03-25.1Q205.13-23.05 204.86-21.2 204.58-19.35 204.03-17.6L204.03-17.6Q203.68-17.55 202.93-17.57 202.18-17.6 201.78-17.8L201.78-17.8 201.08-22.8Q199.33-22.8 197.56-21.53 195.78-20.25 194.33-16.85L194.33-16.85ZM227.23-24.95L227.23-1.7Q227.23 3.2 224.6 6.53 221.98 9.85 217.48 12.3L217.48 12.3Q216.43 11.55 216.53 10.15L216.53 10.15Q219.03 8.7 220.25 7 221.48 5.3 221.85 3.23 222.23 1.15 222.23-1.5L222.23-1.5 222.23-22 218.08-22.4Q217.93-23.4 218.33-24.15L218.33-24.15Q220.13-24.4 221.95-24.75 223.78-25.1 225.33-25.5L225.33-25.5Q225.83-25.45 226.28-25.33 226.73-25.2 227.23-24.95L227.23-24.95ZM224.23-30.05L224.23-30.05Q223.38-30.05 222.68-30.6 221.98-31.15 221.58-31.95 221.18-32.75 221.18-33.45L221.18-33.45Q221.18-34.1 221.73-34.77 222.28-35.45 223.1-35.93 223.93-36.4 224.73-36.4L224.73-36.4Q225.63-36.4 226.33-35.83 227.03-35.25 227.4-34.48 227.78-33.7 227.78-33L227.78-33Q227.78-32.35 227.25-31.65 226.73-30.95 225.9-30.5 225.08-30.05 224.23-30.05ZM232.52-12.5L232.52-12.5Q232.52-16.4 234.05-19.45 235.57-22.5 238.42-24.25 241.27-26 245.12-26L245.12-26Q249.02-26 251.85-24.25 254.67-22.5 256.2-19.45 257.72-16.4 257.72-12.5L257.72-12.5Q257.72-8.5 256.2-5.45 254.67-2.4 251.85-0.7 249.02 1 245.12 1L245.12 1Q241.27 1 238.42-0.7 235.57-2.4 234.05-5.45 232.52-8.5 232.52-12.5ZM252.32-11.8L252.32-11.8Q252.32-15.15 251.57-17.88 250.82-20.6 249.22-22.23 247.62-23.85 245.02-23.85L245.02-23.85Q242.37-23.85 240.8-22.25 239.22-20.65 238.57-18 237.92-15.35 237.92-12.15L237.92-12.15Q237.92-9.25 238.67-6.73 239.42-4.2 241.05-2.68 242.67-1.15 245.22-1.15L245.22-1.15Q247.92-1.15 249.47-2.65 251.02-4.15 251.67-6.6 252.32-9.05 252.32-11.8ZM267.87-37.25L267.87-22.75 268.12-22.5Q270.12-24.25 272.02-24.88 273.92-25.5 275.62-25.5L275.62-25.5Q278.87-25.5 281.22-23.9 283.57-22.3 284.85-19.38 286.12-16.45 286.12-12.45L286.12-12.45Q286.12-8.1 284.4-5.1 282.67-2.1 279.65-0.55 276.62 1 272.62 1L272.62 1Q270.57 1 267.9 0.5 265.22 0 263.12-0.9L263.12-0.9 263.12-34.3 258.97-34.7Q258.82-35.7 259.22-36.45L259.22-36.45Q261.02-36.7 262.67-37.05 264.32-37.4 265.87-37.8L265.87-37.8Q266.82-37.75 267.87-37.25L267.87-37.25ZM268.12-19.6L268.12-2.15Q269.22-1.65 270.32-1.33 271.42-1 273.12-1L273.12-1Q276.67-1 278.72-4 280.77-7 280.77-12.45L280.77-12.45Q280.77-17.7 278.8-20.13 276.82-22.55 274.12-22.55L274.12-22.55Q272.87-22.55 271.67-22.08 270.47-21.6 269.52-20.93 268.57-20.25 268.12-19.6L268.12-19.6ZM293.07-7.5L293.57-2.2Q294.62-1.7 295.69-1.5 296.77-1.3 298.12-1.3L298.12-1.3Q300.17-1.3 301.77-2.2 303.37-3.1 303.37-5.1L303.37-5.1Q303.37-6.15 302.79-7.05 302.22-7.95 300.79-8.9 299.37-9.85 296.72-11.05L296.72-11.05Q293.82-12.4 292.22-14.18 290.62-15.95 290.62-19.1L290.62-19.1Q290.62-21.65 291.89-23.13 293.17-24.6 295.19-25.25 297.22-25.9 299.47-25.9L299.47-25.9Q301.42-25.9 303.34-25.53 305.27-25.15 306.77-24.5L306.77-24.5Q306.77-24.25 306.79-23.95 306.82-23.65 306.82-23.4L306.82-23.4Q306.82-20.35 305.87-17.65L305.87-17.65Q305.67-17.6 305.49-17.57 305.32-17.55 305.12-17.55L305.12-17.55Q304.37-17.55 303.62-17.85L303.62-17.85 302.82-23.25Q302.17-23.45 301.32-23.58 300.47-23.7 299.62-23.7L299.62-23.7Q298.47-23.7 297.34-23.38 296.22-23.05 295.49-22.28 294.77-21.5 294.77-20.1L294.77-20.1Q294.77-19.15 295.19-18.3 295.62-17.45 296.89-16.53 298.17-15.6 300.72-14.35L300.72-14.35Q304.72-12.45 306.34-10.68 307.97-8.9 307.97-6.25L307.97-6.25Q307.97-3.7 306.62-2.1 305.27-0.5 303.09 0.25 300.92 1 298.47 1L298.47 1Q296.12 1 294.09 0.63 292.07 0.25 290.02-1L290.02-1 290.02-1.85Q290.02-3.2 290.19-4.63 290.37-6.05 290.92-7.7L290.92-7.7Q291.22-7.75 291.42-7.75L291.42-7.75Q292.32-7.75 293.07-7.5L293.07-7.5Z" opacity="1" transform="matrix(1,0,0,1,0,0)" fill="#e6e9e0" class="slogan-text-1" data-fill-palette-color="quaternary" id="text-1"></path></svg></g></svg></g></svg></g></svg></g></svg></g><defs></defs></svg><rect width="395.52" height="173.47685731846525" fill="none" stroke="none" visibility="hidden"></rect></g></svg></g></svg>